<svg width="100%" height="100%" viewBox="0 0 723 593" fill="none" xmlns="http://www.w3.org/2000/svg">
<g clip-path="url(#clip0)">
<path opacity="0.1" d="M437.368 593C478.182 593 511.268 587.414 511.268 580.524C511.268 573.634 478.182 568.049 437.368 568.049C396.555 568.049 363.469 573.634 363.469 580.524C363.469 587.414 396.555 593 437.368 593Z" fill="#004AF6"/>
<path opacity="0.1" d="M434.266 73.3302C404.013 99.1867 364.762 97.5158 330.404 84.0654C296.046 70.6151 264.397 46.6592 230.895 29.6374C203.473 15.58 173.935 6.18258 143.473 1.82462C100.774 -4.14172 53.0787 3.12649 23.3229 44.9257C-9.81216 91.4729 -7.26225 175.426 28.5747 218.179C46.8042 239.914 70.6724 250.58 91.4933 267.553C112.314 284.526 131.573 312.701 129.804 345.457C128.166 375.783 109.073 399.063 89.3372 413.683C74.0723 424.961 55.2762 437.284 53.4035 460.655C51.6207 483.267 67.4246 500.985 82.5236 511.066C131.753 543.94 192.398 543.62 241.461 510.238C258.965 498.326 275.045 482.488 293.399 473.2C341.578 448.834 394.677 473.361 445.689 482.334C488.872 489.93 533.153 485.996 575.223 470.826C600.487 461.72 625.848 447.796 643.601 421.856C656.399 403.15 664.373 379.472 671.857 356.094C679.846 331.162 687.521 306.055 694.882 280.774C699.298 265.597 703.652 250.141 704.792 233.892C706.865 204.464 698.144 175.412 686.279 150.545C658.133 91.5356 610.68 50.0775 559.316 39.5442C507.951 29.0108 453.525 49.5832 413.667 94.5918" fill="#004AF6"/>
<g opacity="0.35">
<path opacity="0.2" d="M346.201 142.05V137.421H273.78C270.45 137.421 272.481 142.078 272.481 142.078H233.134V245.915H405.892V142.05H346.201Z" fill="#004AF6"/>
</g>
<path d="M575.914 219.502C575.914 219.502 597.688 180.64 630.505 169.446C644.29 164.837 656.218 155.847 664.497 143.826C668.385 138.091 671.742 132.009 674.524 125.655" stroke="#535461" stroke-width="2" stroke-miterlimit="10"/>
<path d="M695.117 118.471C691.385 122.126 673.985 125.906 673.985 125.906C673.985 125.906 678.249 108.501 681.987 104.839C683.781 103.085 686.194 102.121 688.694 102.159C691.194 102.197 693.576 103.233 695.317 105.041C697.058 106.849 698.015 109.279 697.978 111.798C697.94 114.316 696.911 116.716 695.117 118.471Z" fill="#004AF6"/>
<path d="M685.277 149.952C680.17 150.976 663.523 144.619 663.523 144.619C663.523 144.619 676.5 132.346 681.607 131.322C682.821 131.08 684.071 131.08 685.285 131.324C686.499 131.568 687.654 132.05 688.682 132.744C689.711 133.437 690.595 134.328 691.282 135.365C691.969 136.402 692.447 137.566 692.688 138.789C692.929 140.012 692.928 141.271 692.686 142.494C692.444 143.717 691.965 144.88 691.277 145.917C690.589 146.954 689.705 147.843 688.675 148.536C687.646 149.228 686.491 149.71 685.277 149.952Z" fill="#004AF6"/>
<path d="M649.433 184.065C644.512 182.353 633.332 168.401 633.332 168.401C633.332 168.401 650.683 164.398 655.604 166.118C656.773 166.526 657.852 167.162 658.777 167.99C659.703 168.818 660.458 169.822 660.998 170.944C661.539 172.066 661.855 173.284 661.928 174.529C662.002 175.774 661.831 177.022 661.426 178.2C661.02 179.378 660.389 180.465 659.567 181.398C658.745 182.33 657.749 183.09 656.635 183.635C655.521 184.18 654.312 184.498 653.076 184.572C651.84 184.646 650.602 184.474 649.433 184.065Z" fill="#004AF6"/>
<path d="M616.546 203.705C611.412 202.863 598.047 191.027 598.047 191.027C598.047 191.027 614.48 184.135 619.621 184.984C620.843 185.188 622.013 185.632 623.064 186.29C624.115 186.949 625.027 187.81 625.748 188.824C626.469 189.838 626.985 190.985 627.266 192.2C627.547 193.415 627.587 194.674 627.385 195.904C627.183 197.135 626.743 198.313 626.089 199.372C625.435 200.431 624.58 201.35 623.574 202.077C622.567 202.803 621.429 203.322 620.223 203.605C619.017 203.888 617.768 203.929 616.546 203.726V203.705Z" fill="#004AF6"/>
<path d="M649.011 131.037C649.011 136.286 658.43 151.498 658.43 151.498C658.43 151.498 667.869 136.293 667.869 131.044C667.903 129.774 667.685 128.511 667.226 127.329C666.768 126.146 666.079 125.068 665.2 124.158C664.321 123.249 663.27 122.525 662.109 122.032C660.948 121.538 659.7 121.283 658.44 121.283C657.18 121.283 655.933 121.538 654.772 122.032C653.611 122.525 652.56 123.249 651.681 124.158C650.802 125.068 650.113 126.146 649.654 127.329C649.196 128.511 648.977 129.774 649.011 131.044V131.037Z" fill="#004AF6"/>
<path d="M610.845 154.498C612.4 159.504 625.91 171.207 625.91 171.207C625.91 171.207 630.395 153.851 628.84 148.845C628.518 147.601 627.949 146.435 627.166 145.419C626.384 144.403 625.404 143.557 624.288 142.934C623.171 142.311 621.941 141.922 620.671 141.792C619.401 141.662 618.118 141.794 616.899 142.178C615.681 142.563 614.553 143.193 613.584 144.03C612.615 144.867 611.825 145.894 611.261 147.048C610.698 148.202 610.373 149.459 610.306 150.743C610.239 152.028 610.432 153.312 610.873 154.519L610.845 154.498Z" fill="#004AF6"/>
<path d="M576.847 182.429C577.538 187.63 588.898 201.442 588.898 201.442C588.898 201.442 596.23 185.103 595.539 179.902C595.45 178.606 595.098 177.341 594.505 176.187C593.912 175.033 593.09 174.014 592.09 173.192C591.09 172.371 589.934 171.765 588.692 171.412C587.451 171.059 586.151 170.966 584.872 171.139C583.593 171.312 582.364 171.748 581.259 172.419C580.154 173.09 579.198 173.982 578.449 175.04C577.7 176.098 577.174 177.3 576.905 178.571C576.635 179.842 576.627 181.155 576.881 182.429H576.847Z" fill="#004AF6"/>
<path opacity="0.25" d="M695.117 118.471C691.385 122.126 673.985 125.906 673.985 125.906C673.985 125.906 678.249 108.501 681.987 104.839C683.781 103.085 686.194 102.121 688.694 102.159C691.194 102.197 693.576 103.233 695.317 105.041C697.058 106.849 698.015 109.279 697.978 111.798C697.94 114.316 696.911 116.716 695.117 118.471Z" fill="black"/>
<path opacity="0.25" d="M685.277 149.952C680.17 150.976 663.523 144.619 663.523 144.619C663.523 144.619 676.5 132.346 681.607 131.322C682.821 131.08 684.071 131.08 685.285 131.324C686.499 131.568 687.654 132.05 688.682 132.744C689.711 133.437 690.595 134.328 691.282 135.365C691.969 136.402 692.447 137.566 692.688 138.789C692.929 140.012 692.928 141.271 692.686 142.494C692.444 143.717 691.965 144.88 691.277 145.917C690.589 146.954 689.705 147.843 688.675 148.536C687.646 149.228 686.491 149.71 685.277 149.952Z" fill="black"/>
<path opacity="0.25" d="M649.433 184.065C644.512 182.353 633.332 168.401 633.332 168.401C633.332 168.401 650.683 164.398 655.604 166.118C656.773 166.526 657.852 167.162 658.777 167.99C659.703 168.818 660.458 169.822 660.998 170.944C661.539 172.066 661.855 173.284 661.928 174.529C662.002 175.774 661.831 177.022 661.426 178.2C661.02 179.378 660.389 180.465 659.567 181.398C658.745 182.33 657.749 183.09 656.635 183.635C655.521 184.18 654.312 184.498 653.076 184.572C651.84 184.646 650.602 184.474 649.433 184.065Z" fill="black"/>
<path opacity="0.25" d="M616.546 203.705C611.412 202.863 598.047 191.027 598.047 191.027C598.047 191.027 614.48 184.135 619.621 184.984C620.843 185.188 622.013 185.632 623.064 186.29C624.115 186.949 625.027 187.81 625.748 188.824C626.469 189.838 626.985 190.985 627.266 192.2C627.547 193.415 627.587 194.674 627.385 195.904C627.183 197.135 626.743 198.313 626.089 199.372C625.435 200.431 624.58 201.35 623.574 202.077C622.567 202.803 621.429 203.322 620.223 203.605C619.017 203.888 617.768 203.929 616.546 203.726V203.705Z" fill="black"/>
<path opacity="0.25" d="M649.011 131.037C649.011 136.286 658.43 151.498 658.43 151.498C658.43 151.498 667.869 136.293 667.869 131.044C667.903 129.774 667.685 128.511 667.226 127.329C666.768 126.146 666.079 125.068 665.2 124.158C664.321 123.249 663.27 122.525 662.109 122.032C660.948 121.538 659.7 121.283 658.44 121.283C657.18 121.283 655.933 121.538 654.772 122.032C653.611 122.525 652.56 123.249 651.681 124.158C650.802 125.068 650.113 126.146 649.654 127.329C649.196 128.511 648.977 129.774 649.011 131.044V131.037Z" fill="black"/>
<path opacity="0.25" d="M610.845 154.498C612.4 159.504 625.91 171.207 625.91 171.207C625.91 171.207 630.395 153.851 628.84 148.845C628.518 147.601 627.949 146.435 627.166 145.419C626.384 144.403 625.404 143.557 624.288 142.934C623.171 142.311 621.941 141.922 620.671 141.792C619.401 141.662 618.118 141.794 616.899 142.178C615.681 142.563 614.553 143.193 613.584 144.03C612.615 144.867 611.825 145.894 611.261 147.048C610.698 148.202 610.373 149.459 610.306 150.743C610.239 152.028 610.432 153.312 610.873 154.519L610.845 154.498Z" fill="black"/>
<path opacity="0.25" d="M576.847 182.429C577.538 187.63 588.898 201.442 588.898 201.442C588.898 201.442 596.23 185.103 595.539 179.902C595.45 178.606 595.098 177.341 594.505 176.187C593.912 175.033 593.09 174.014 592.09 173.192C591.09 172.371 589.934 171.765 588.692 171.412C587.451 171.059 586.151 170.966 584.872 171.139C583.593 171.312 582.364 171.748 581.259 172.419C580.154 173.09 579.198 173.982 578.449 175.04C577.7 176.098 577.174 177.3 576.905 178.571C576.635 179.842 576.627 181.155 576.881 182.429H576.847Z" fill="black"/>
<path d="M577.171 218.729C577.171 218.729 581.442 174.312 606.886 150.69C617.635 140.853 624.922 127.765 627.651 113.395C628.9 106.563 629.522 99.6303 629.51 92.6836" stroke="#535461" stroke-width="2" stroke-miterlimit="10"/>
<path d="M645.515 77.7017C643.566 82.5751 629.179 93.1293 629.179 93.1293C629.179 93.1293 626.076 75.46 628.025 70.5867C628.487 69.4297 629.172 68.3759 630.039 67.4854C630.906 66.5949 631.939 65.8852 633.078 65.3968C634.217 64.9084 635.441 64.6508 636.679 64.6389C637.917 64.6269 639.145 64.8607 640.294 65.327C641.442 65.7932 642.488 66.4828 643.372 67.3564C644.256 68.2299 644.96 69.2703 645.445 70.4181C645.93 71.5659 646.186 72.7986 646.198 74.046C646.209 75.2933 645.977 76.5308 645.515 77.6878V77.7017Z" fill="#004AF6"/>
<path d="M649.184 110.52C644.927 113.541 627.154 114.523 627.154 114.523C627.154 114.523 634.064 98.0025 638.335 94.988C639.347 94.2703 640.49 93.7606 641.697 93.4878C642.905 93.215 644.155 93.1846 645.374 93.3982C646.594 93.6119 647.76 94.0654 648.805 94.733C649.851 95.4006 650.755 96.2691 651.468 97.2889C652.18 98.3088 652.686 99.46 652.957 100.677C653.228 101.894 653.258 103.152 653.046 104.381C652.834 105.61 652.383 106.784 651.721 107.837C651.058 108.891 650.196 109.802 649.184 110.52Z" fill="#004AF6"/>
<path d="M630.125 156.322C624.935 156.761 609.104 148.574 609.104 148.574C609.104 148.574 623.36 137.831 628.55 137.393C629.783 137.289 631.025 137.43 632.205 137.81C633.384 138.189 634.478 138.799 635.423 139.604C636.369 140.409 637.148 141.394 637.715 142.502C638.283 143.611 638.629 144.821 638.732 146.064C638.835 147.307 638.695 148.558 638.318 149.746C637.942 150.934 637.337 152.036 636.537 152.989C635.738 153.941 634.761 154.726 633.66 155.298C632.56 155.87 631.359 156.218 630.125 156.322Z" fill="#004AF6"/>
<path d="M607.964 187.7C602.926 189.022 585.941 183.641 585.941 183.641C585.941 183.641 598.193 170.629 603.216 169.313C604.415 169 605.663 168.928 606.889 169.101C608.115 169.273 609.295 169.688 610.362 170.32C611.429 170.952 612.362 171.79 613.108 172.785C613.854 173.781 614.397 174.915 614.708 176.122C615.019 177.329 615.091 178.586 614.919 179.822C614.748 181.057 614.337 182.246 613.709 183.321C613.082 184.396 612.25 185.336 611.262 186.087C610.274 186.839 609.148 187.386 607.95 187.7H607.964Z" fill="#004AF6"/>
<path d="M608.413 108.014C610.521 112.81 625.253 122.87 625.253 122.87C625.253 122.87 627.762 105.118 625.654 100.321C624.646 98.0128 622.769 96.2027 620.437 95.2888C618.104 94.3749 615.507 94.432 613.216 95.4475C610.925 96.463 609.128 98.3538 608.221 100.704C607.314 103.054 607.37 105.671 608.378 107.979L608.413 108.014Z" fill="#004AF6"/>
<path d="M582.955 145.079C586.41 149.019 603.438 154.185 603.438 154.185C603.438 154.185 600.556 136.488 597.121 132.54C595.472 130.648 593.144 129.493 590.649 129.33C588.154 129.167 585.698 130.008 583.819 131.67C581.941 133.332 580.794 135.678 580.632 138.191C580.47 140.704 581.306 143.179 582.955 145.072V145.079Z" fill="#004AF6"/>
<path d="M563.109 184.455C565.873 188.925 581.767 196.917 581.767 196.917C581.767 196.917 581.939 178.983 579.175 174.514C577.84 172.424 575.745 170.945 573.34 170.393C570.935 169.841 568.412 170.26 566.31 171.56C564.207 172.86 562.695 174.938 562.095 177.349C561.495 179.759 561.857 182.31 563.102 184.455H563.109Z" fill="#004AF6"/>
<path d="M106.067 398.408C106.067 398.408 79.1164 364.761 80.8094 330.996C81.6145 316.841 77.8417 302.805 70.0569 290.993C66.3165 285.416 62.0765 280.196 57.3903 275.398" stroke="#535461" stroke-width="2" stroke-miterlimit="10"/>
<path d="M58.337 254.116C60.2719 258.815 57.4455 275.962 57.4455 275.962C57.4455 275.962 43.4038 265.868 41.4689 261.168C40.5415 258.913 40.5414 256.379 41.4687 254.123C42.3959 251.868 44.1745 250.076 46.4132 249.142C48.6519 248.207 51.1673 248.207 53.406 249.141C55.6447 250.076 57.4234 251.868 58.3508 254.123L58.337 254.116Z" fill="#004AF6"/>
<path d="M83.0138 274.312C82.1016 279.311 70.4715 292.142 70.4715 292.142C70.4715 292.142 64.1071 275.962 65.0469 270.978C65.25 269.776 65.688 268.626 66.3356 267.597C66.9832 266.567 67.8275 265.677 68.8193 264.978C69.8112 264.28 70.931 263.787 72.1135 263.528C73.2961 263.269 74.5179 263.25 75.708 263.471C76.8982 263.691 78.0329 264.148 79.0462 264.815C80.0596 265.481 80.9315 266.344 81.6112 267.352C82.2909 268.361 82.7649 269.496 83.0057 270.691C83.2465 271.885 83.2492 273.117 83.0138 274.312Z" fill="#004AF6"/>
<path d="M100.663 319.022C97.3665 322.879 80.8923 328.037 80.8923 328.037C80.8923 328.037 83.5182 310.862 86.8145 307.005C88.4269 305.272 90.6423 304.233 92.9973 304.107C95.3522 303.982 97.6643 304.778 99.4496 306.33C101.235 307.883 102.355 310.07 102.576 312.436C102.797 314.801 102.102 317.161 100.635 319.022H100.663Z" fill="#004AF6"/>
<path d="M106.467 355.885C103.869 360.243 88.5006 368.138 88.5006 368.138C88.5006 368.138 88.2035 350.733 90.8087 346.403C92.0712 344.341 94.0896 342.864 96.4262 342.292C98.7627 341.72 101.229 342.099 103.29 343.347C105.351 344.595 106.84 346.611 107.435 348.958C108.03 351.305 107.682 353.794 106.467 355.885Z" fill="#004AF6"/>
<path d="M53.092 300.454C57.7841 302.327 74.7559 299.215 74.7559 299.215C74.7559 299.215 64.5286 285.222 59.8434 283.342C57.6068 282.516 55.1383 282.601 52.9635 283.581C50.7887 284.561 49.0794 286.357 48.1994 288.587C47.3195 290.818 47.3384 293.306 48.2523 295.522C49.1661 297.739 50.9026 299.508 53.092 300.454Z" fill="#004AF6"/>
<path d="M60.4308 343.493C65.4615 343.869 80.7334 335.786 80.7334 335.786C80.7334 335.786 66.816 325.51 61.7852 325.134C60.5887 325.043 59.3861 325.19 58.2459 325.567C57.1058 325.943 56.0504 326.543 55.1402 327.331C54.23 328.118 53.4827 329.079 52.9409 330.158C52.3992 331.236 52.0737 332.412 51.9829 333.617C51.8922 334.823 52.038 336.034 52.412 337.183C52.7861 338.332 53.381 339.395 54.1629 340.312C54.9448 341.229 55.8983 341.982 56.969 342.528C58.0397 343.073 59.2067 343.401 60.4032 343.493H60.4308Z" fill="#004AF6"/>
<path d="M73.2564 384.31C78.1489 385.542 94.5609 380.133 94.5609 380.133C94.5609 380.133 82.5646 367.678 77.6721 366.467C75.3207 365.877 72.833 366.252 70.7563 367.51C68.6795 368.768 67.1839 370.806 66.5983 373.175C66.0127 375.544 66.3853 378.05 67.6339 380.142C68.8825 382.234 70.905 383.741 73.2564 384.331V384.31Z" fill="#004AF6"/>
<path d="M681.794 454.883C681.794 454.883 687.066 461.845 679.361 472.288C671.656 482.731 665.299 491.628 667.869 498.172C667.869 498.172 679.499 478.679 688.96 478.421C698.42 478.164 692.208 466.593 681.794 454.883Z" fill="#004AF6"/>
<path opacity="0.1" d="M681.794 454.883C682.253 455.555 682.616 456.288 682.872 457.062C692.104 467.992 697.024 478.191 688.151 478.449C679.859 478.686 669.963 493.577 667.586 497.344C667.665 497.634 667.759 497.92 667.869 498.2C667.869 498.2 679.5 478.707 688.96 478.449C698.42 478.191 692.208 466.593 681.794 454.883Z" fill="black"/>
<path d="M691.599 463.732C691.599 466.182 691.323 468.159 690.991 468.159C690.66 468.159 690.383 466.182 690.383 463.732C690.383 461.281 690.722 462.444 691.074 462.444C691.427 462.444 691.599 461.288 691.599 463.732Z" fill="#FFD037"/>
<path d="M694.958 466.656C692.83 467.825 690.971 468.528 690.812 468.236C690.653 467.944 692.249 466.746 694.377 465.576C696.506 464.407 695.67 465.256 695.829 465.576C695.988 465.897 697.093 465.486 694.958 466.656Z" fill="#FFD037"/>
<path d="M653.945 454.883C653.945 454.883 648.672 461.845 656.378 472.288C664.083 482.731 670.44 491.628 667.869 498.172C667.869 498.172 656.239 478.679 646.779 478.421C637.319 478.164 643.531 466.593 653.945 454.883Z" fill="#004AF6"/>
<path opacity="0.1" d="M653.945 454.883C653.482 455.552 653.119 456.287 652.867 457.062C643.628 467.992 638.715 478.191 647.588 478.449C655.88 478.686 665.776 493.577 668.153 497.344C668.07 497.629 667.98 497.914 667.869 498.2C667.869 498.2 656.239 478.707 646.779 478.449C637.319 478.191 643.531 466.593 653.945 454.883Z" fill="black"/>
<path d="M644.132 463.732C644.132 466.182 644.409 468.159 644.741 468.159C645.072 468.159 645.349 466.182 645.349 463.732C645.349 461.281 645.01 462.444 644.658 462.444C644.305 462.444 644.132 461.288 644.132 463.732Z" fill="#FFD037"/>
<path d="M640.774 466.656C642.909 467.825 644.768 468.528 644.92 468.236C645.072 467.944 643.483 466.746 641.354 465.576C639.226 464.407 640.062 465.256 639.903 465.576C639.744 465.897 638.646 465.486 640.774 466.656Z" fill="#FFD037"/>
<path opacity="0.1" d="M667.869 551.333C698.317 551.333 723 547.518 723 542.812C723 538.105 698.317 534.29 667.869 534.29C637.422 534.29 612.739 538.105 612.739 542.812C612.739 547.518 637.422 551.333 667.869 551.333Z" fill="#004AF6"/>
<path d="M696.243 488.836L695.981 491.001L695.607 494.065L695.455 495.346L695.089 498.409L694.923 499.69L694.557 502.753L690.335 537.562C689.962 540.674 684.917 543.132 678.829 543.132H656.91C650.822 543.132 645.784 540.709 645.404 537.562L641.182 502.753L640.809 499.69L640.656 498.409L640.283 495.346L640.124 494.065L639.758 491.001L639.489 488.836C639.281 487.075 642.011 485.592 645.452 485.592H690.286C693.728 485.592 696.457 487.075 696.243 488.836Z" fill="#65617D"/>
<path d="M695.981 491.001L695.608 494.065H640.124L639.758 491.001H695.981Z" fill="#9D9CB5"/>
<path d="M695.455 495.345L695.082 498.409H640.656L640.276 495.345H695.455Z" fill="#9D9CB5"/>
<path d="M694.923 499.69L694.557 502.746H641.182L640.809 499.69H694.923Z" fill="#9D9CB5"/>
<path d="M555.369 129.463H554.789C555.701 128.419 556.171 127.375 556.095 126.449L550.843 121.158L552.847 116.632H546.096L547.346 113.103H543.345L499.078 127.959C499.078 127.959 499.029 128.579 499.078 129.463H470.573V258.85H594.378V129.463H555.369Z" fill="url(#paint0_linear)"/>
<path d="M593.431 129.916H471.492V257.485H593.431V129.916Z" fill="#F6F7F9"/>
<path opacity="0.1" d="M555.031 129.916C549.254 138.486 510.666 149.771 510.666 149.771L510.908 140.839H503.77C503.965 139.979 503.879 139.078 503.522 138.272C503.166 137.466 502.559 136.798 501.793 136.369C499.72 135.221 499.52 131.496 499.548 129.916H555.031Z" fill="black"/>
<path d="M543.179 113.785L499.582 128.405C499.582 128.405 499.085 134.114 501.794 135.597C502.558 136.027 503.163 136.695 503.519 137.5C503.875 138.306 503.963 139.206 503.77 140.066H510.908L510.666 148.998C510.666 148.998 556.482 135.597 555.742 126.915L550.573 121.701L552.543 117.231H545.888L547.125 113.75L543.179 113.785Z" fill="#9D9CB5"/>
<g opacity="0.35">
<path opacity="0.2" d="M570.89 171.27H494.033V173.442H570.89V171.27Z" fill="#004AF6"/>
</g>
<g opacity="0.35">
<path opacity="0.2" d="M570.89 182.722H494.033V184.894H570.89V182.722Z" fill="#004AF6"/>
</g>
<g opacity="0.35">
<path opacity="0.2" d="M570.89 194.167H494.033V196.339H570.89V194.167Z" fill="#004AF6"/>
</g>
<g opacity="0.35">
<path opacity="0.2" d="M570.89 205.613H494.033V207.785H570.89V205.613Z" fill="#004AF6"/>
</g>
<g opacity="0.35">
<path opacity="0.2" d="M570.89 217.058H494.033V219.23H570.89V217.058Z" fill="#004AF6"/>
</g>
<g opacity="0.35">
<path opacity="0.2" d="M570.89 228.51H494.033V230.682H570.89V228.51Z" fill="#004AF6"/>
</g>
<path d="M142.215 118.979H141.924C144.108 113.34 146.126 107.84 146.036 106.788C145.842 104.7 141.689 109.239 141.496 108.104C141.302 106.969 141.496 102.667 139.609 102.667C137.723 102.667 136.583 104.902 135.463 104.902C134.344 104.902 129.79 104.15 129.79 104.15L123.992 118.979H80.3187V257.165H188.7V118.979H142.215Z" fill="url(#paint1_linear)"/>
<path d="M187.463 119.745H81.535V256.239H187.463V119.745Z" fill="#F6F7F9"/>
<path opacity="0.1" d="M142.042 119.745C139.81 125.586 137.294 131.74 136.721 133.209C135.608 135.994 134.876 134.511 133.577 134.142C132.278 133.773 130.626 134.511 129.887 134.142C129.147 133.773 124.807 134.142 124.807 134.142C124.856 133.458 124.856 132.772 124.807 132.088C124.711 131.35 119.721 132.088 119.721 132.088L124.476 119.745H142.042Z" fill="black"/>
<path d="M129.887 105.104L119.721 131.35C119.721 131.35 124.711 130.605 124.801 131.35C124.853 132.031 124.853 132.715 124.801 133.397C124.801 133.397 129.147 133.021 129.887 133.397C130.626 133.773 132.284 133.021 133.577 133.397C134.869 133.773 135.608 135.256 136.721 132.464C137.833 129.672 145.96 109.754 145.773 107.707C145.587 105.661 141.524 110.13 141.337 109.009C141.15 107.888 141.337 103.642 139.492 103.642C137.647 103.642 136.534 105.849 135.429 105.849C134.323 105.849 129.887 105.104 129.887 105.104Z" fill="#9D9CB5"/>
<g opacity="0.35">
<path opacity="0.2" d="M172.931 155.974H96.0743V158.146H172.931V155.974Z" fill="#004AF6"/>
</g>
<g opacity="0.35">
<path opacity="0.2" d="M172.931 164.168H96.0743V166.341H172.931V164.168Z" fill="#004AF6"/>
</g>
<g opacity="0.35">
<path opacity="0.2" d="M172.931 172.356H96.0743V174.528H172.931V172.356Z" fill="#004AF6"/>
</g>
<g opacity="0.35">
<path opacity="0.2" d="M172.931 180.55H96.0743V182.722H172.931V180.55Z" fill="#004AF6"/>
</g>
<g opacity="0.35">
<path opacity="0.2" d="M172.931 188.737H96.0743V190.909H172.931V188.737Z" fill="#004AF6"/>
</g>
<g opacity="0.35">
<path opacity="0.2" d="M172.931 196.924H96.0743V199.096H172.931V196.924Z" fill="#004AF6"/>
</g>
<path d="M541.942 323.303H541.652C544.333 316.341 546.807 309.54 546.69 308.266C546.462 305.711 541.362 311.287 541.162 309.895C540.961 308.502 541.162 303.183 538.847 303.183C536.532 303.183 535.143 305.968 533.754 305.968C532.365 305.968 526.802 305.035 526.802 305.035L519.657 323.303H466.136V493.793H598.973V323.303H541.942Z" fill="url(#paint2_linear)"/>
<path d="M597.723 324.487H467.2V492.686H597.723V324.487Z" fill="#F6F7F9"/>
<path opacity="0.1" d="M541.687 324.487C538.964 331.63 535.91 339.107 535.198 340.903C533.816 344.342 532.924 342.504 531.328 342.052C529.732 341.599 527.686 342.504 526.774 342.052C525.862 341.599 520.514 342.052 520.514 342.052C520.573 341.21 520.573 340.366 520.514 339.524C520.396 338.612 514.253 339.524 514.253 339.524L520.078 324.487H541.687Z" fill="black"/>
<path d="M526.774 306.442L514.253 338.78C514.253 338.78 520.396 337.861 520.514 338.78C520.573 339.619 520.573 340.461 520.514 341.3C520.514 341.3 525.862 340.847 526.774 341.3C527.686 341.752 529.732 340.847 531.328 341.3C532.925 341.752 533.83 343.597 535.198 340.158C536.566 336.719 546.579 312.171 546.351 309.651C546.123 307.131 541.113 312.631 540.885 311.259C540.657 309.888 540.885 304.638 538.612 304.638C536.338 304.638 534.97 307.361 533.602 307.361C532.233 307.361 526.774 306.442 526.774 306.442Z" fill="#9D9CB5"/>
<g opacity="0.35">
<path opacity="0.2" d="M570.89 371.487H494.033V377.007H570.89V371.487Z" fill="#004AF6"/>
</g>
<g opacity="0.35">
<path opacity="0.2" d="M570.89 407.347H494.033V412.868H570.89V407.347Z" fill="#004AF6"/>
</g>
<g opacity="0.35">
<path opacity="0.2" d="M570.89 443.215H494.033V448.736H570.89V443.215Z" fill="#004AF6"/>
</g>
<path d="M164.445 329.13V308.544H135.76V329.13H75.8685V491.328H216.542V329.13H164.445Z" fill="url(#paint3_linear)"/>
<path d="M215.056 329.952H77.3542V490.27H215.056V329.952Z" fill="#F6F7F9"/>
<path opacity="0.1" d="M164.065 329.952H135.981V351.791H164.065V329.952Z" fill="black"/>
<path d="M164.065 309.602H135.981V351.046H164.065V309.602Z" fill="#9D9CB5"/>
<g opacity="0.35">
<path opacity="0.2" d="M184.63 368.73H107.773V374.25H184.63V368.73Z" fill="#004AF6"/>
</g>
<g opacity="0.35">
<path opacity="0.2" d="M184.63 379.708H107.773V385.229H184.63V379.708Z" fill="#004AF6"/>
</g>
<g opacity="0.35">
<path opacity="0.2" d="M184.63 390.694H107.773V396.215H184.63V390.694Z" fill="#004AF6"/>
</g>
<g opacity="0.35">
<path opacity="0.2" d="M184.63 401.673H107.773V407.194H184.63V401.673Z" fill="#004AF6"/>
</g>
<g opacity="0.35">
<path opacity="0.2" d="M184.637 413.898H164.065V430.649H184.637V413.898Z" fill="#004AF6"/>
</g>
<g opacity="0.35">
<path opacity="0.2" d="M128.346 434.617H107.773V451.367H128.346V434.617Z" fill="#004AF6"/>
</g>
<path d="M362.004 328.873H361.811C364.05 320.052 365.736 313.028 365.736 313.028L356.186 317.553C356.186 317.553 349.407 308.502 346.898 310.013C344.39 311.524 338.882 315.29 338.882 315.29L331.571 311.517L328.773 328.873H271.037V454.11L274.748 456.345C277.809 455.238 282.847 453.358 282.847 453.358L280.532 459.833L282.093 460.766L284.726 458.364L285.701 462.952L288.831 464.839L293.772 461.671L292.39 467.004L297.027 469.788L310.509 464.685L306.445 475.462L309.12 477.078L315.222 475.998C315.222 475.998 314.945 478.15 314.772 480.482L320.895 484.172C323.403 483.19 325.767 482.222 325.767 482.222C325.767 482.222 325.525 484.575 325.414 486.887L329.519 489.365C332.76 487.458 336.885 484.861 336.885 484.861L333.43 491.335H411.448V328.873H362.004Z" fill="url(#paint4_linear)"/>
<path d="M409.914 329.952V490.27H333.396L336.809 483.886C336.809 483.886 332.767 486.441 329.588 488.328L325.566 485.877C325.677 483.601 325.919 481.276 325.919 481.276C325.919 481.276 323.597 482.229 321.137 483.197L315.132 479.556C315.304 477.259 315.567 475.135 315.567 475.135L309.59 476.2L306.971 474.606L310.951 463.968L297.732 469.009L293.178 466.224L294.504 460.961L289.667 464.087L286.599 462.228L285.645 457.703L283.061 460.084L281.527 459.158L283.8 452.774C283.8 452.774 278.859 454.625 275.853 455.718L272.219 453.519V329.952H409.914Z" fill="#F6F7F9"/>
<g opacity="0.35">
<path opacity="0.2" d="M379.488 379.708H302.631V385.229H379.488V379.708Z" fill="#004AF6"/>
</g>
<g opacity="0.35">
<path opacity="0.2" d="M379.488 396.215H302.631V401.736H379.488V396.215Z" fill="#004AF6"/>
</g>
<g opacity="0.35">
<path opacity="0.2" d="M379.488 412.715H302.631V418.236H379.488V412.715Z" fill="#004AF6"/>
</g>
<g opacity="0.35">
<path opacity="0.2" d="M318.027 429.221H302.631V434.742H318.027V429.221Z" fill="#004AF6"/>
</g>
<path opacity="0.1" d="M361.417 329.952C357.672 344.836 352.213 365.458 350.789 365.096C348.578 364.49 345.123 360.222 345.123 360.222C345.123 360.222 336.996 367.915 333.057 363.947C329.118 359.979 323.694 362.701 323.694 362.701L328.945 329.945L361.417 329.952Z" fill="black"/>
<path d="M331.578 312.86L323.694 361.998C323.694 361.998 329.111 359.268 333.05 363.244C336.989 367.219 345.123 359.505 345.123 359.505C345.123 359.505 348.578 363.766 350.789 364.378C353 364.991 365.08 314.35 365.08 314.35L355.716 318.82C355.716 318.82 349.068 309.881 346.601 311.371C344.134 312.86 338.744 316.585 338.744 316.585L331.578 312.86Z" fill="#9D9CB5"/>
<path d="M395.983 98.4759V93.7627H322.65C319.285 93.7627 321.344 98.4759 321.344 98.4759H281.499V203.559H456.4V98.4341L395.983 98.4759Z" fill="url(#paint5_linear)"/>
<path d="M455.349 98.9773H282.605V202.842H455.349V98.9773Z" fill="#F6F7F9"/>
<path opacity="0.1" d="M395.679 115.916H327.135C327.135 115.916 326.396 107.909 328.8 106.427C331.205 104.944 321.959 99.7222 321.959 99.7222C321.857 99.4787 321.767 99.2301 321.69 98.9773H395.679V101.4C395.679 101.4 405.104 109.775 395.679 115.916Z" fill="black"/>
<path d="M323.251 94.3267H395.679V100.655C395.679 100.655 405.104 109.009 395.679 115.171H327.135C327.135 115.171 326.396 107.164 328.8 105.681C331.205 104.199 321.959 98.9772 321.959 98.9772C321.959 98.9772 319.927 94.3267 323.251 94.3267Z" fill="#9D9CB5"/>
<g opacity="0.35">
<path opacity="0.2" d="M434.141 131.552H303.826V133.724H434.141V131.552Z" fill="#004AF6"/>
</g>
<g opacity="0.35">
<path opacity="0.2" d="M381.671 139.739H303.826V141.911H381.671V139.739Z" fill="#004AF6"/>
</g>
<g opacity="0.35">
<path opacity="0.2" d="M434.141 147.933H303.826V150.105H434.141V147.933Z" fill="#004AF6"/>
</g>
<g opacity="0.35">
<path opacity="0.2" d="M434.141 156.12H303.826V158.292H434.141V156.12Z" fill="#004AF6"/>
</g>
<g opacity="0.35">
<path opacity="0.2" d="M434.141 164.308H303.826V166.48H434.141V164.308Z" fill="#004AF6"/>
</g>
<path d="M487.745 578.297C486.508 572.992 485.748 568.341 485.748 568.341C485.748 568.341 486.031 562.57 483.46 558.239V556.798V546.14C484.189 544.209 485.082 542.346 486.128 540.57C488.035 537.214 486.128 524.934 486.128 524.934C486.128 524.934 479.065 507.619 480.786 496.641C482.507 485.662 466.274 447.872 466.274 447.872C466.374 444.226 466.887 440.604 467.802 437.075C467.97 436.333 468.04 435.572 468.009 434.812C468.009 434.721 468.009 434.631 468.009 434.533V434.624C467.767 427.384 462.087 413.808 462.087 413.808L462.847 387.931C462.847 387.931 466.475 372.67 460.56 352.195C458.486 345.045 457.167 339.33 456.33 334.916C456.234 334.415 456.144 333.934 456.061 333.475C468.244 331.602 477.545 330.042 477.545 330.042C477.545 330.042 470.476 300.246 465.708 295.038C460.94 289.831 457.118 273.456 457.118 273.456C457.118 273.456 454.63 252.424 458.645 246.305C462.66 240.185 463.22 229.548 463.22 229.548C463.22 229.548 472.383 222.85 473.53 219.871C474.677 216.891 476.585 210.193 476.585 206.643C476.585 203.092 475.437 199.939 475.824 198.08C476.211 196.221 473.15 189.148 474.677 185.792C475.074 184.762 475.28 183.667 475.285 182.562C475.289 182.529 475.289 182.497 475.285 182.464C475.285 182.464 475.285 182.464 475.285 182.429C475.296 179.498 475.025 176.572 474.477 173.692C474.477 173.692 470.331 170.009 465.417 168.819L465.217 168.018L464.699 165.93C464.407 165.732 464.105 165.551 463.794 165.387V164.628L463.711 161.606L465.148 154.805C467.96 142.969 452.309 141.222 452.309 141.222C451.37 139.399 449.791 137.994 447.879 137.282C444.728 136.161 447.354 155.062 448.826 156.267C449.938 157.179 453.359 163.103 455.004 166.013L455.273 166.494C455.023 166.728 454.792 166.982 454.582 167.253L455.176 171.353L455.266 171.98C454.231 173.281 453.39 174.728 452.772 176.275C452.772 176.275 455.639 179.436 455.066 182.972C454.492 186.509 455.943 190.916 456.013 191.16C455.84 190.965 453.829 188.765 451.818 189.301C449.807 189.837 444.217 191.536 444.217 191.536C444.217 191.536 440.015 192.281 440.402 193.213C440.789 194.146 437.534 198.24 437.534 198.24L426.25 187.463C426.139 187.143 426.029 186.822 425.925 186.488C425.454 184.949 425.126 183.369 424.944 181.768C426.173 181.473 427.378 181.086 428.551 180.612C429.738 180.205 430.809 179.515 431.674 178.6C432.808 177.208 433.056 175.391 433.492 173.727C434.383 170.413 436.304 167.461 437.679 164.322C440.002 159.018 440.783 153.159 439.932 147.425C439.754 145.662 439.159 143.967 438.198 142.482C436.36 139.927 433.015 138.89 430.596 136.85C428.178 134.81 426.602 131.705 423.769 130.174C421.212 128.781 418.089 128.955 415.207 129.429C409.56 130.365 404.135 132.353 399.21 135.29C397.565 136.272 395.754 137.379 393.861 137.059C392.244 136.766 391.055 135.458 390.012 134.211C390.025 134.157 390.041 134.104 390.06 134.051L389.936 133.905C388.741 136.578 388.142 139.482 388.181 142.413C388.181 142.865 388.181 143.318 388.236 143.805C388.236 143.965 388.236 144.125 388.236 144.285C388.246 144.415 388.246 144.545 388.236 144.675C388.236 144.878 388.208 145.079 388.153 145.274C387.913 145.857 387.553 146.381 387.096 146.812C386.751 147.203 386.444 147.625 386.177 148.073C386.225 147.919 386.273 147.766 386.329 147.613C385.609 148.669 385.204 149.911 385.161 151.191C385.099 152.127 385.404 153.049 386.011 153.76C386.573 154.317 387.189 154.816 387.849 155.25C387.071 159.618 387.641 164.12 389.482 168.151C391.323 172.182 394.347 175.547 398.145 177.793C398.277 178.113 398.401 178.44 398.532 178.768C399.97 182.597 401.055 187.052 400.606 191.167C400.564 191.473 400.523 191.772 400.467 192.072C400.322 192.225 400.184 192.385 400.06 192.545C400.06 192.545 381.402 192.726 377.041 188.723C372.681 184.72 365.985 198.47 365.985 198.47C365.985 198.47 359.302 199.779 357.969 198.47C356.635 197.161 348.806 198.289 348.806 198.289C348.806 198.289 344.031 193.631 337.162 194.007C334.553 192.009 331.674 190.397 328.614 189.217L328.399 189.141C327.055 188.652 325.621 188.469 324.198 188.605C324.198 188.605 315.035 180.947 312.368 176.881C309.7 172.815 296.964 157.596 296.909 157.527L296.861 156.831L296.716 154.617C296.338 154.677 295.957 154.709 295.575 154.714L295.32 153.948C294.589 151.789 293.683 149.693 292.611 147.683C292.611 147.683 292.611 144.898 293.419 144.202C294.228 143.506 293.088 133.265 293.088 133.265C293.088 133.265 284.83 113.813 277.436 128.336C277.436 128.336 263.456 137.727 275.19 148.664C275.19 148.664 279.868 150.955 280.532 152.765C280.967 153.941 282.556 157.22 283.627 159.406C283.807 159.769 283.966 160.103 284.104 160.381L283.973 160.493L284.146 162.317L284.215 163.013C282.004 164.28 280.504 165.526 280.87 166.494C281.523 168.106 281.972 169.795 282.204 171.52C282.204 171.52 298.429 191.995 300.53 200.76C300.53 200.76 344.065 226.818 358.37 228.684L355.889 241.71C355.889 241.71 355.122 249.528 355.315 252.32C355.509 255.112 353.595 267.775 353.595 267.775C353.595 267.775 351.114 286.384 349.013 288.988C346.912 291.592 347.299 302.766 347.299 302.766C346.794 308.113 345.834 313.408 344.431 318.59C342.358 325.663 343.865 334.408 343.865 334.408C343.865 334.408 336.609 351.165 353.982 339.81C353.982 339.81 362.509 339.274 372.328 338.94C372.328 339.26 372.328 339.587 372.328 339.921C372.328 341.195 372.287 342.574 372.273 344.029C372.142 353.622 372.087 366.843 372.515 376.847C373.275 394.53 378.624 429.528 378.624 429.528V447.107C378.279 448.759 378.11 450.444 378.119 452.133C378.002 458.33 379.634 464.434 382.825 469.733L384.007 481.338C384.007 481.338 387.144 489.066 387.206 493.682C387.191 494.059 387.145 494.434 387.068 494.803C386.951 495.394 386.9 495.996 386.916 496.599C386.737 501.925 389.922 514.658 389.922 514.658C389.922 514.658 390.116 527.503 391.995 528.247C393.626 528.881 389.819 535.648 388.678 537.59C388.678 537.465 388.63 537.347 388.609 537.221C388.464 537.472 388.374 537.611 388.374 537.611C387.982 538.647 387.781 539.747 387.78 540.855C387.672 541.733 387.813 542.623 388.187 543.423C388.562 544.223 389.154 544.899 389.895 545.374C393.522 547.609 395.471 549.467 392.396 550.247C391.263 550.421 390.14 550.653 389.031 550.943C388.975 550.797 388.92 550.651 388.872 550.512C388.442 550.69 388.085 551.009 387.857 551.417C387.629 551.825 387.543 552.298 387.614 552.76C387.531 553.7 387.842 555.072 388.754 557.118C391.809 564.004 393.923 566.614 393.923 566.614L395.388 566.447C395.165 567.007 394.88 567.539 394.538 568.035C393.98 568.842 393.239 569.504 392.375 569.963C391.58 570.446 390.692 570.752 389.77 570.861C388.734 570.896 387.717 571.15 386.784 571.607C385.852 572.064 385.026 572.714 384.359 573.514C382.459 575.992 381.264 579.376 385.05 582.341L398.705 587.089C398.705 587.089 422.2 590.16 420.936 584.855C419.671 579.55 418.939 574.899 418.939 574.899C418.939 574.899 419.201 569.719 417.031 565.487C416.789 565.003 416.511 564.538 416.202 564.094L417.031 563.997C417.031 563.997 418.745 552.273 421.039 550.073C421.565 549.558 421.682 549.161 421.558 548.862C421.799 548.221 421.198 547.845 420.431 547.636L420.265 548.096C419.516 547.931 418.752 547.845 417.985 547.838C417.985 547.838 417.218 541.698 419.699 539.484C419.901 539.231 420.048 538.937 420.131 538.623C420.215 538.309 420.232 537.981 420.182 537.66C420.203 536.819 420.117 535.979 419.927 535.161C419.927 535.202 419.871 535.258 419.837 535.3C418.586 529.73 414.357 520.868 414.357 520.868C414.357 520.868 414.164 515.298 415.691 513.057C417.218 510.815 415.504 482.71 415.504 482.71C415.504 482.71 416.078 469.127 414.357 462.799C412.636 456.47 416.43 449.021 416.43 449.021C416.43 449.021 416.43 448.875 416.389 448.617L416.437 448.52C416.437 448.52 416.354 447.684 416.216 446.383C416.197 446.423 416.181 446.465 416.168 446.508C415.787 442.916 415.055 436.399 414.523 433.385C413.756 429.103 414.709 408.628 414.709 408.628L418.165 399.884L424.273 414.957L430.769 435.063C430.769 435.063 433.982 439.309 434.058 443.612C434.058 443.821 434.058 444.03 434.017 444.238C433.965 444.684 433.94 445.133 433.941 445.582C433.827 448.121 434.519 450.63 435.917 452.746C435.917 452.746 437.638 462.235 440.312 464.658C442.987 467.08 442.98 471.731 442.98 471.731C442.98 471.731 446.228 485.501 447.755 487.924C449.04 489.964 449.137 495.582 449.095 497.288C449.095 497.608 449.095 497.789 449.095 497.789C449.095 497.789 449.544 502.711 449.531 506.84C449.531 507.348 449.531 507.842 449.482 508.309V508.204C449.478 509.332 449.346 510.455 449.088 511.553C449.066 511.614 449.047 511.677 449.033 511.741C449.033 511.511 449.033 511.274 449.088 511.045C448.423 513.856 448.103 516.739 448.135 519.629C448.045 524.579 448.826 530.447 451.77 533.887C456.925 539.846 460.173 539.101 460.173 539.101C460.173 539.101 457.685 546.543 454.644 548.033C454.53 548.092 454.421 548.162 454.32 548.242C454.32 548.096 454.264 547.957 454.243 547.81C453.608 548.367 453.352 549.37 453.352 550.595C453.131 553.867 455.176 559.186 457.132 561.63C457.854 562.342 458.739 562.864 459.71 563.147C459.553 563.255 459.392 563.355 459.226 563.447C458.886 563.634 458.536 563.799 458.175 563.941C457.682 564.161 457.157 564.3 456.621 564.352C455.584 564.376 454.564 564.621 453.629 565.073C452.694 565.524 451.864 566.171 451.196 566.97C449.296 569.441 448.1 572.824 451.887 575.79L465.542 580.538C465.542 580.538 488.996 583.602 487.745 578.297Z" fill="url(#paint6_linear)"/>
<path d="M398.076 587.089L384.864 582.341C381.215 579.376 382.376 575.992 384.221 573.514C384.854 572.72 385.648 572.072 386.551 571.615C387.453 571.157 388.443 570.9 389.452 570.861C390.348 570.751 391.209 570.444 391.975 569.963C392.808 569.496 393.519 568.835 394.048 568.035C395.014 566.494 395.536 564.712 395.554 562.89C395.554 562.89 410.066 558.608 414.032 562.89C414.741 563.664 415.332 564.539 415.788 565.487C417.861 569.719 417.64 574.899 417.64 574.899C417.64 574.899 418.379 579.543 419.574 584.855C420.77 590.166 398.076 587.089 398.076 587.089Z" fill="#2D293D"/>
<path d="M462.736 580.531L449.524 575.783C445.882 572.817 447.043 569.434 448.881 566.962C449.512 566.167 450.306 565.518 451.209 565.061C452.112 564.603 453.102 564.347 454.112 564.31C454.636 564.259 455.147 564.12 455.626 563.899C455.974 563.756 456.314 563.591 456.641 563.405C460.338 561.358 460.242 556.332 460.242 556.332C460.242 556.332 474.753 552.05 478.72 556.332C479.251 556.91 479.715 557.548 480.102 558.232C482.59 562.563 482.313 568.341 482.313 568.341C482.313 568.341 483.053 572.991 484.255 578.296C485.458 583.601 462.736 580.531 462.736 580.531Z" fill="#2D293D"/>
<path opacity="0.1" d="M414.053 562.89C414.762 563.664 415.353 564.539 415.808 565.487L394.068 568.028C395.035 566.487 395.557 564.705 395.575 562.883C395.575 562.883 410.087 558.615 414.053 562.89Z" fill="black"/>
<path opacity="0.1" d="M480.109 558.232V562.333C476.73 567.944 460.373 566.719 455.626 563.899C455.974 563.756 456.314 563.591 456.641 563.405C460.338 561.358 460.242 556.332 460.242 556.332C460.242 556.332 474.753 552.05 478.72 556.332C479.253 556.91 479.719 557.548 480.109 558.232Z" fill="black"/>
<path d="M482.693 540.556C481.68 542.337 480.815 544.2 480.109 546.126V560.843C476.412 566.983 457.194 564.937 454.61 561.588C452.025 558.239 449.254 549.488 452.205 547.998C455.156 546.508 457.554 539.066 457.554 539.066C457.554 539.066 454.409 539.811 449.42 533.852C444.431 527.892 445.91 514.679 446.843 511.518C447.775 508.357 446.843 497.74 446.843 497.74C446.843 497.74 447.029 490.298 445.55 487.875C444.071 485.453 440.969 471.682 440.969 471.682C440.969 471.682 440.969 467.032 438.377 464.609C435.786 462.186 434.128 452.697 434.128 452.697C432.615 450.325 431.964 447.499 432.282 444.698C432.835 440.04 429.138 435.014 429.138 435.014L422.857 414.915L416.948 399.835L413.625 408.586C413.625 408.586 412.699 429.061 413.438 433.343C414.177 437.624 415.283 448.979 415.283 448.979C415.283 448.979 411.593 456.422 413.251 462.75C414.91 469.078 414.364 482.668 414.364 482.668C414.364 482.668 416.022 510.773 414.544 513.008C413.065 515.243 413.251 520.826 413.251 520.826C413.251 520.826 420.853 537.2 418.427 539.435C416.002 541.67 416.762 547.789 416.762 547.789C416.762 547.789 421.938 547.789 419.72 550.024C417.501 552.259 415.836 563.948 415.836 563.948L393.502 566.559C393.502 566.559 391.429 563.948 388.499 557.063C385.569 550.177 389.051 550.922 392.023 550.177C394.994 549.432 393.115 547.574 389.604 545.304C386.094 543.035 388.125 538.043 388.125 538.043C388.125 538.043 393.481 528.923 391.636 528.178C389.791 527.433 389.604 514.588 389.604 514.588C389.604 514.588 385.907 499.328 386.84 495.234C387.773 491.141 383.848 481.338 383.848 481.338L382.556 469.607C375.901 458.072 378.493 447.462 378.493 447.462V429.43C378.493 429.43 373.317 394.44 372.577 376.757C372.107 365.43 372.239 349.974 372.391 340.332C372.481 334.923 372.577 331.337 372.577 331.337L452.392 322.983C452.392 322.983 452.309 326.694 453.843 334.93C454.651 339.343 455.916 345.059 457.934 352.209C463.662 372.684 460.152 387.944 460.152 387.944L459.412 413.808C459.412 413.808 466.433 431.122 464.941 437.074C464.055 440.608 463.559 444.229 463.462 447.872C463.462 447.872 479.183 485.648 477.517 496.654C475.852 507.661 482.693 524.948 482.693 524.948C482.693 524.948 484.538 537.2 482.693 540.556Z" fill="#575988"/>
<path opacity="0.05" d="M437.058 443.577L461.354 440.319C461.354 440.319 447.589 454.465 437.058 443.577Z" fill="black"/>
<path opacity="0.1" d="M457.844 416.405C457.844 416.405 458.673 425.058 453.407 428.316C453.407 428.316 462.833 426.827 457.844 416.405Z" fill="black"/>
<path opacity="0.1" d="M456.351 388.856C456.351 388.856 436.042 405.697 428.655 404.305C421.267 402.913 456.351 388.856 456.351 388.856Z" fill="black"/>
<path opacity="0.1" d="M406.942 451.493C406.942 451.493 391.518 455.022 391.049 461.239C390.579 467.456 406.942 451.493 406.942 451.493Z" fill="black"/>
<path opacity="0.05" d="M410.335 529.104C410.335 529.104 388.533 533.204 394.725 535.996C400.917 538.788 411.075 541.016 411.075 541.016C411.075 541.016 418.096 541.392 410.335 529.104Z" fill="black"/>
<g opacity="0.05">
<path opacity="0.05" d="M390.323 540.424C389.774 540.079 389.309 539.614 388.963 539.063C388.618 538.512 388.4 537.89 388.326 537.242L388.105 537.632C388.105 537.632 386.073 542.659 389.584 544.893L390.724 545.645C391.366 545.527 392.064 545.436 392.742 545.262C395.713 544.517 393.833 542.659 390.323 540.424Z" fill="black"/>
<path opacity="0.05" d="M418.407 538.934C419.001 538.377 418.98 536.95 418.614 535.112C417.633 536.553 417.398 538.795 417.377 540.5C417.605 539.91 417.956 539.376 418.407 538.934Z" fill="black"/>
<path opacity="0.05" d="M415.048 446.334C414.241 448.534 413.745 450.838 413.576 453.177C413.992 451.562 414.557 449.989 415.262 448.478C415.262 448.478 415.179 447.636 415.048 446.334Z" fill="black"/>
<path opacity="0.05" d="M464.961 436.559C465.113 435.893 465.18 435.21 465.162 434.526C464.892 435.919 464.699 437.207 464.561 438.335C464.678 437.757 464.809 437.165 464.961 436.559Z" fill="black"/>
<path opacity="0.05" d="M414.523 512.507C414.827 512.047 414.993 510.515 415.076 508.371C414.385 509.729 414.101 511.922 414.012 513.593C414.139 513.212 414.31 512.847 414.523 512.507Z" fill="black"/>
<path opacity="0.05" d="M419.104 547.609C417.584 551.786 416.555 559.04 416.555 559.04L394.214 561.644C394.214 561.644 392.14 559.04 389.21 552.155C388.955 551.549 388.747 551.006 388.582 550.512C387.241 551.131 386.716 552.531 388.471 556.617C391.429 563.503 393.474 566.113 393.474 566.113L415.815 563.489C415.815 563.489 417.481 551.765 419.699 549.565C420.791 548.451 420.093 547.887 419.104 547.609Z" fill="black"/>
<path opacity="0.05" d="M389.584 514.177C389.584 514.177 389.77 527.022 391.615 527.767C392.548 525.644 393.17 523.59 392.306 523.291C390.461 522.553 390.275 509.708 390.275 509.708C390.275 509.708 386.578 494.441 387.51 490.347C388.443 486.253 384.553 476.388 384.553 476.388L383.261 464.664C376.606 453.122 379.197 442.512 379.197 442.512V424.467C379.197 424.467 374.022 389.469 373.282 371.786C372.812 360.466 372.944 345.01 373.096 335.368C373.096 333.621 373.158 332.075 373.185 330.773L372.543 330.836C372.543 330.836 372.446 334.421 372.356 339.831C372.204 349.473 372.073 364.894 372.543 376.255C373.282 393.939 378.458 428.929 378.458 428.929V446.988C378.458 446.988 375.867 457.598 382.521 469.134L383.813 480.865C383.813 480.865 387.69 490.73 386.771 494.789C385.852 498.847 389.584 514.177 389.584 514.177Z" fill="black"/>
<path opacity="0.05" d="M455.356 556.617C453.541 553.971 452.332 550.951 451.818 547.776C449.538 549.864 452.157 557.905 454.582 561.087C457.167 564.435 476.384 566.482 480.081 560.342V556.798C475.12 561.79 457.802 559.785 455.356 556.617Z" fill="black"/>
<path opacity="0.05" d="M483.44 535.585C482.422 537.365 481.555 539.228 480.848 541.155V543.766C481.27 542.812 481.871 541.538 482.7 540.041C483.232 539.073 483.454 537.368 483.509 535.425C483.481 535.488 483.46 535.544 483.44 535.585Z" fill="black"/>
<path opacity="0.05" d="M456.489 538.516C457.196 537.086 457.806 535.609 458.314 534.096C458.314 534.096 455.17 534.84 450.18 528.888C446.552 524.551 446.345 516.357 446.863 511.017C445.93 514.185 444.459 527.398 449.441 533.351C452.716 537.249 455.17 538.273 456.489 538.516Z" fill="black"/>
<path opacity="0.05" d="M446.856 497.239C447.182 500.908 447.304 504.592 447.223 508.274C447.317 507.692 447.444 507.115 447.603 506.547C448.536 503.387 447.603 492.777 447.603 492.777C447.603 492.777 447.789 485.327 446.31 482.912C444.832 480.496 441.66 466.718 441.66 466.718C441.66 466.718 441.66 462.061 439.075 459.645C436.491 457.229 434.826 447.733 434.826 447.733C433.314 445.358 432.662 442.53 432.98 439.727C433.533 435.076 429.836 430.05 429.836 430.05L423.555 409.944L417.646 394.872L414.316 403.616C414.316 403.616 414.267 404.716 414.205 406.442L416.907 399.334L422.815 414.414L429.097 434.513C429.097 434.513 432.794 439.539 432.241 444.197C431.922 446.998 432.574 449.824 434.086 452.196C434.086 452.196 435.752 461.692 438.336 464.108C440.92 466.523 440.969 471.181 440.969 471.181C440.969 471.181 444.113 484.958 445.592 487.374C447.071 489.79 446.856 497.239 446.856 497.239Z" fill="black"/>
</g>
<path d="M462.391 154.825L461.009 161.62L461.092 164.642L461.147 166.876L453.407 167.642L452.544 166.034C450.947 163.124 447.637 157.199 446.559 156.287C445.136 155.076 442.593 136.181 445.647 137.302C447.508 138.028 449.037 139.422 449.938 141.215C449.938 141.215 465.1 142.99 462.391 154.825Z" fill="#FFCDD3"/>
<path opacity="0.1" d="M461.119 166.842L453.407 167.642L452.544 166.034C453.649 164.885 456.807 162.275 461.057 164.642L461.119 166.842Z" fill="black"/>
<path d="M463.082 170.518L452.903 172.926L452.689 171.395L452.115 167.294C452.115 167.294 456.13 161.892 461.955 165.937L462.46 168.025L463.082 170.518Z" fill="#DCE6F2"/>
<path d="M298.395 155.522L287.56 161.398C287.56 161.398 287.145 160.534 286.578 159.309C285.542 157.13 284.008 153.844 283.586 152.667C282.943 150.857 278.41 148.574 278.41 148.574C267.057 137.637 280.587 128.238 280.587 128.238C287.746 113.723 295.734 133.167 295.734 133.167C295.734 133.167 296.84 143.415 296.059 144.104C295.278 144.793 295.278 147.585 295.278 147.585C296.315 149.6 297.188 151.695 297.89 153.851C298.215 154.895 298.395 155.522 298.395 155.522Z" fill="#FFCDD3"/>
<path opacity="0.1" d="M298.395 155.522L287.559 161.398C287.559 161.398 287.145 160.534 286.578 159.309C288.105 158.021 293.537 153.586 295.32 153.788C296.173 153.895 297.034 153.916 297.89 153.851C298.215 154.895 298.395 155.522 298.395 155.522Z" fill="black"/>
<path d="M299.507 158.836L287.311 164.892L287.069 162.247L286.868 160.395C286.868 160.395 293.931 154.296 296.018 154.533C297.074 154.69 298.147 154.69 299.203 154.533L299.342 156.747L299.507 158.836Z" fill="#DCE6F2"/>
<path d="M432.808 199.932C432.808 199.932 379.64 205.974 389.577 202.716C396.487 200.447 399.251 196.012 399.818 191.097C400.288 186.982 399.237 182.534 397.841 178.705C396.586 175.325 394.993 172.083 393.087 169.028C393.087 169.028 433.734 146.499 425.566 166.939C424.313 170.037 423.537 173.31 423.265 176.644C423.016 179.955 423.369 183.284 424.308 186.467C425.847 191.662 428.79 196.324 432.808 199.932Z" fill="#FFCDD3"/>
<path opacity="0.1" d="M425.6 166.981C424.347 170.079 423.571 173.352 423.299 176.686C419.471 179.923 415.269 179.714 409.879 179.714C405.733 179.714 401.151 180.724 397.841 178.712C396.586 175.332 394.993 172.09 393.087 169.035C393.087 169.035 433.734 146.506 425.6 166.981Z" fill="black"/>
<path d="M409.16 181.135C421.304 181.135 431.149 171.216 431.149 158.982C431.149 146.747 421.304 136.829 409.16 136.829C397.016 136.829 387.172 146.747 387.172 158.982C387.172 171.216 397.016 181.135 409.16 181.135Z" fill="#FFCDD3"/>
<path opacity="0.1" d="M432.808 199.932C432.808 199.932 379.64 205.975 389.577 202.716C396.487 200.447 399.251 196.012 399.818 191.097C402.464 188.215 407.785 186.126 411.199 185.019C414.33 183.957 417.71 183.901 420.874 184.859C422.115 185.232 423.295 185.785 424.377 186.502C425.903 191.677 428.821 196.325 432.808 199.932Z" fill="black"/>
<path opacity="0.1" d="M463.082 170.518L452.903 172.926L452.689 171.395C455.556 167.705 459.171 167.259 462.46 168.032L463.082 170.518Z" fill="black"/>
<path opacity="0.1" d="M299.507 158.836L287.311 164.892L287.069 162.247C291.429 159.657 298.733 156.991 299.369 156.761L299.507 158.836Z" fill="black"/>
<path opacity="0.1" d="M453.843 334.909C433.25 338.181 403.943 342.448 399.293 341.021C395.437 339.838 383.115 339.963 372.391 340.325C372.48 334.916 372.577 331.33 372.577 331.33L452.392 322.976C452.392 322.976 452.309 326.673 453.843 334.909Z" fill="black"/>
<path d="M474.38 330.035C474.38 330.035 406.576 341.766 399.293 339.531C392.009 337.297 354.659 339.719 354.659 339.719C337.846 351.067 344.867 334.317 344.867 334.317C344.867 334.317 343.388 325.573 345.42 318.5C346.775 313.311 347.699 308.018 348.184 302.675C348.184 302.675 347.818 291.536 349.849 288.905C351.881 286.273 354.279 267.685 354.279 267.685C354.279 267.685 356.131 255.028 355.944 252.236C355.758 249.445 356.497 241.626 356.497 241.626L358.909 228.622C345.088 226.763 302.935 200.704 302.935 200.704C300.903 191.953 285.196 171.464 285.196 171.464C284.968 169.743 284.534 168.055 283.904 166.438C282.791 163.458 299.425 157.506 299.425 157.506C299.425 157.506 311.801 172.766 314.385 176.86C316.97 180.953 325.843 188.591 325.843 188.591C327.22 188.448 328.612 188.632 329.906 189.127C329.982 189.127 330.044 189.169 330.12 189.189C330.196 189.21 330.12 189.189 330.12 189.189C334.266 190.644 338.413 193.972 338.413 193.972C345.067 193.603 349.683 198.254 349.683 198.254C349.683 198.254 357.285 197.14 358.549 198.442C359.814 199.744 366.31 198.442 366.31 198.442C366.31 198.442 372.778 184.664 377.027 188.695C381.277 192.726 399.306 192.51 399.306 192.51C401.711 189.294 407.557 186.989 411.213 185.799C414.343 184.737 417.724 184.681 420.887 185.639C422.251 186.03 423.537 186.657 424.688 187.491L435.627 198.282C435.627 198.282 438.771 194.188 438.391 193.255C438.011 192.322 442.088 191.584 442.088 191.584C442.088 191.584 447.444 189.906 449.475 189.35C451.507 188.793 453.373 191.006 453.539 191.201C453.47 190.965 452.081 186.46 452.62 183.021C453.159 179.582 450.401 176.317 450.401 176.317C456.869 160.305 471.464 173.713 471.464 173.713C471.464 173.713 473.129 182.464 471.651 185.813C470.172 189.162 473.129 196.256 472.756 198.094C472.383 199.932 473.496 203.12 473.496 206.657C473.496 210.193 471.651 216.898 470.538 219.884C469.425 222.871 460.525 229.527 460.525 229.527C460.525 229.527 459.965 240.137 456.089 246.277C452.212 252.417 454.61 273.428 454.61 273.428C454.61 273.428 458.307 289.81 462.902 295.01C467.498 300.211 474.38 330.035 474.38 330.035Z" fill="#656691"/>
<path opacity="0.1" d="M375.535 207.562C375.535 207.562 373.503 201.421 371.658 200.857C369.818 200.176 368.027 199.369 366.296 198.442L367.484 196.151C367.484 196.151 374.429 198.066 375.535 200.113C376.641 202.159 375.535 207.562 375.535 207.562Z" fill="black"/>
<path opacity="0.1" d="M338.399 193.972C338.032 195.838 321.586 197.509 321.586 197.509L329.878 189.113L330.086 189.182C334.287 190.644 338.399 193.972 338.399 193.972Z" fill="black"/>
<path d="M290.821 169.912C291.638 169.912 292.3 169.245 292.3 168.422C292.3 167.599 291.638 166.932 290.821 166.932C290.004 166.932 289.342 167.599 289.342 168.422C289.342 169.245 290.004 169.912 290.821 169.912Z" fill="#575988"/>
<path d="M292.715 172.892C293.531 172.892 294.193 172.225 294.193 171.402C294.193 170.579 293.531 169.912 292.715 169.912C291.898 169.912 291.236 170.579 291.236 171.402C291.236 172.225 291.898 172.892 292.715 172.892Z" fill="#575988"/>
<path d="M294.567 175.642C295.383 175.642 296.045 174.975 296.045 174.152C296.045 173.329 295.383 172.662 294.567 172.662C293.75 172.662 293.088 173.329 293.088 174.152C293.088 174.975 293.75 175.642 294.567 175.642Z" fill="#575988"/>
<path d="M296.501 178.614C297.318 178.614 297.98 177.947 297.98 177.124C297.98 176.302 297.318 175.635 296.501 175.635C295.685 175.635 295.023 176.302 295.023 177.124C295.023 177.947 295.685 178.614 296.501 178.614Z" fill="#575988"/>
<path d="M470.656 178.176C471.32 178.176 471.858 177.633 471.858 176.964C471.858 176.295 471.32 175.753 470.656 175.753C469.992 175.753 469.453 176.295 469.453 176.964C469.453 177.633 469.992 178.176 470.656 178.176Z" fill="#575988"/>
<path d="M470.842 180.919C471.506 180.919 472.044 180.376 472.044 179.707C472.044 179.038 471.506 178.496 470.842 178.496C470.178 178.496 469.64 179.038 469.64 179.707C469.64 180.376 470.178 180.919 470.842 180.919Z" fill="#575988"/>
<path d="M471.008 183.669C471.672 183.669 472.21 183.126 472.21 182.457C472.21 181.788 471.672 181.246 471.008 181.246C470.344 181.246 469.806 181.788 469.806 182.457C469.806 183.126 470.344 183.669 471.008 183.669Z" fill="#575988"/>
<path opacity="0.1" d="M375.625 258.001C375.459 257.785 417.087 310.772 449.434 280.153C449.434 280.139 398.353 287.136 375.625 258.001Z" fill="black"/>
<path opacity="0.1" d="M351.701 285.549C351.701 285.549 376.62 286.245 379.232 293.458V300.97C378.523 301.369 377.725 301.579 376.913 301.579C376.102 301.579 375.303 301.369 374.595 300.97C372.08 299.577 357.015 291.919 351.701 295.602V285.549Z" fill="black"/>
<path d="M352.164 285.549C352.164 285.549 375.998 286.203 378.492 293.089V300.252C377.815 300.634 377.051 300.835 376.274 300.835C375.498 300.835 374.734 300.634 374.056 300.252C371.658 298.951 357.243 291.599 352.164 295.135V285.549Z" fill="#656691"/>
<path opacity="0.1" d="M365.308 231.03C365.308 231.03 368.162 238.424 374.982 247.739C379.199 253.439 384.308 258.409 390.109 262.456C390.109 262.456 365.722 234.483 365.308 231.03Z" fill="black"/>
<path opacity="0.1" d="M357.153 201.853C357.153 201.853 361.3 219.954 372.024 226.08L357.153 201.853Z" fill="black"/>
<path opacity="0.1" d="M350.775 203.684C350.671 203.35 347.085 217.984 364.596 226.081C364.589 226.081 357.153 223.539 350.775 203.684Z" fill="black"/>
<path opacity="0.1" d="M459.627 191.556C459.35 191.556 468.265 197.272 470.683 199.911C470.683 199.932 464.865 191.181 459.627 191.556Z" fill="black"/>
<path d="M403.218 179.06C403.529 180.202 403.909 181.455 404.931 182.053C405.578 182.367 406.287 182.526 407.004 182.52C413.708 182.938 420.68 183.216 426.886 180.633C428.041 180.219 429.078 179.526 429.905 178.614C431.004 177.257 431.218 175.412 431.661 173.741C432.531 170.434 434.383 167.475 435.724 164.335C437.97 159.012 438.723 153.17 437.901 147.446C437.728 145.687 437.153 143.993 436.221 142.496C434.439 139.941 431.205 138.904 428.848 136.871C426.492 134.838 424.985 131.726 422.242 130.194C419.768 128.802 416.714 128.976 413.949 129.449C408.467 130.391 403.213 132.378 398.47 135.304C396.881 136.293 395.133 137.428 393.294 137.08C391.691 136.773 390.53 135.416 389.494 134.142C388.181 137.177 387.614 140.488 387.842 143.791C387.913 144.275 387.896 144.768 387.794 145.246C387.566 145.825 387.218 146.347 386.771 146.778C385.119 148.713 384.083 151.776 385.721 153.739C386.412 154.589 387.524 155.055 388.215 155.919C389.459 157.478 389.038 159.713 389.01 161.704C388.936 162.395 389.107 163.091 389.494 163.667C390.116 164.426 391.249 164.489 392.209 164.322C393.17 164.154 394.151 163.827 395.098 164.043C396.13 164.389 397.016 165.076 397.613 165.992C400.709 169.926 401.918 174.319 403.218 179.06Z" fill="#2D293D"/>
<g opacity="0.1">
<path opacity="0.1" d="M430.645 176.909C429.817 177.82 428.78 178.513 427.625 178.928C421.406 181.531 414.447 181.232 407.744 180.807C407.027 180.819 406.317 180.662 405.671 180.348C404.655 179.742 404.289 178.496 403.957 177.354C402.658 172.578 401.449 168.22 398.353 164.252C397.756 163.336 396.87 162.649 395.837 162.303C394.891 162.087 393.909 162.414 392.949 162.581C391.988 162.748 390.876 162.685 390.233 161.927C389.847 161.35 389.676 160.655 389.749 159.963C389.749 157.972 390.192 155.731 388.955 154.178C388.264 153.308 387.172 152.848 386.453 151.999C385.43 150.767 385.458 149.103 386.032 147.55C384.857 149.43 384.346 151.846 385.721 153.482C386.412 154.338 387.524 154.798 388.215 155.668C389.452 157.22 389.038 159.462 389.01 161.453C388.936 162.145 389.107 162.84 389.494 163.416C390.116 164.175 391.249 164.238 392.21 164.071C393.17 163.904 394.151 163.577 395.098 163.792C396.13 164.139 397.016 164.825 397.613 165.742C400.709 169.71 401.919 174.096 403.218 178.844C403.529 179.979 403.909 181.232 404.931 181.838C405.577 182.152 406.287 182.309 407.005 182.297C413.708 182.722 420.68 182.993 426.886 180.417C428.041 180.003 429.078 179.31 429.905 178.398C430.324 177.86 430.647 177.252 430.859 176.602C430.79 176.707 430.721 176.811 430.645 176.909Z" fill="black"/>
<path opacity="0.1" d="M387.863 144.633C388.169 144.313 388.404 143.931 388.554 143.512C388.656 143.034 388.673 142.541 388.602 142.057C388.42 139.344 388.77 136.621 389.632 134.044L389.514 133.898C388.201 136.934 387.635 140.244 387.863 143.547C387.897 143.908 387.897 144.272 387.863 144.633Z" fill="black"/>
</g>
<path opacity="0.1" d="M399.293 192.482C399.293 192.482 426.761 196.151 429.228 191.995L399.293 192.482Z" fill="black"/>
<path opacity="0.1" d="M452.716 181.037C452.716 181.037 467.974 181.037 471.333 186.815L452.716 181.037Z" fill="black"/>
</g>
<defs>
<linearGradient id="paint0_linear" x1="532.468" y1="258.85" x2="532.468" y2="113.103" gradientUnits="userSpaceOnUse">
<stop stop-color="#808080" stop-opacity="0.25"/>
<stop offset="0.54" stop-color="#808080" stop-opacity="0.12"/>
<stop offset="1" stop-color="#808080" stop-opacity="0.1"/>
</linearGradient>
<linearGradient id="paint1_linear" x1="29507" y1="61131" x2="29507" y2="26843.2" gradientUnits="userSpaceOnUse">
<stop stop-color="#808080" stop-opacity="0.25"/>
<stop offset="0.54" stop-color="#808080" stop-opacity="0.12"/>
<stop offset="1" stop-color="#808080" stop-opacity="0.1"/>
</linearGradient>
<linearGradient id="paint2_linear" x1="113051" y1="140380" x2="113051" y2="88183.8" gradientUnits="userSpaceOnUse">
<stop stop-color="#808080" stop-opacity="0.25"/>
<stop offset="0.54" stop-color="#808080" stop-opacity="0.12"/>
<stop offset="1" stop-color="#808080" stop-opacity="0.1"/>
</linearGradient>
<linearGradient id="paint3_linear" x1="29838.2" y1="129307" x2="29838.2" y2="81316.8" gradientUnits="userSpaceOnUse">
<stop stop-color="#808080" stop-opacity="0.25"/>
<stop offset="0.54" stop-color="#808080" stop-opacity="0.12"/>
<stop offset="1" stop-color="#808080" stop-opacity="0.1"/>
</linearGradient>
<linearGradient id="paint4_linear" x1="80402.2" y1="133044" x2="80402.2" y2="85732.9" gradientUnits="userSpaceOnUse">
<stop stop-color="#808080" stop-opacity="0.25"/>
<stop offset="0.54" stop-color="#808080" stop-opacity="0.12"/>
<stop offset="1" stop-color="#808080" stop-opacity="0.1"/>
</linearGradient>
<linearGradient id="paint5_linear" x1="107107" y1="35013.3" x2="107107" y2="17693" gradientUnits="userSpaceOnUse">
<stop stop-color="#808080" stop-opacity="0.25"/>
<stop offset="0.54" stop-color="#808080" stop-opacity="0.12"/>
<stop offset="1" stop-color="#808080" stop-opacity="0.1"/>
</linearGradient>
<linearGradient id="paint6_linear" x1="136174" y1="404772" x2="136174" y2="94104" gradientUnits="userSpaceOnUse">
<stop stop-color="#808080" stop-opacity="0.25"/>
<stop offset="0.54" stop-color="#808080" stop-opacity="0.12"/>
<stop offset="1" stop-color="#808080" stop-opacity="0.1"/>
</linearGradient>
<clipPath id="clip0">
<rect width="723" height="593" fill="white"/>
</clipPath>
</defs>
</svg>
